<svg width="393" height="30" viewBox="0 0 393 30" fill="none" xmlns="http://www.w3.org/2000/svg">
<path d="M162.326 8.15061C96.6661 34.1728 70.3581 34.0954 0 8.15061V30H393V8.15061C235.7 67.0493 251.279 -27.1029 162.326 8.15061Z" fill="#FE600C"/>
<path d="M162.326 8.15061C96.6661 34.1728 70.3581 34.0954 0 8.15061V30H393V8.15061C235.7 67.0493 251.279 -27.1029 162.326 8.15061Z" fill="url(#paint0_linear_0_299)"/>
<path d="M162.326 8.15061C96.6661 34.1728 70.3581 34.0954 0 8.15061V30H393V8.15061C235.7 67.0493 251.279 -27.1029 162.326 8.15061Z" fill="url(#paint1_linear_0_299)"/>
<defs>
<linearGradient id="paint0_linear_0_299" x1="0" y1="15" x2="393" y2="15" gradientUnits="userSpaceOnUse">
<stop offset="0.0942703" stop-color="#FC8A19"/>
<stop offset="0.475263" stop-color="#FD7713"/>
<stop offset="0.87077" stop-color="#FE600C"/>
</linearGradient>
<linearGradient id="paint1_linear_0_299" x1="0" y1="15" x2="393" y2="15" gradientUnits="userSpaceOnUse">
<stop offset="0.0942703" stop-color="#FC8A19"/>
<stop offset="0.475263" stop-color="#FD7713"/>
<stop offset="0.87077" stop-color="#FE600C"/>
</linearGradient>
</defs>
</svg>
