<svg width="353" height="89" viewBox="0 0 353 89" fill="none" xmlns="http://www.w3.org/2000/svg">
<line x1="4" y1="72.3104" x2="4" y2="16.6896" stroke="black" stroke-width="2" stroke-linecap="round"/>
<line x1="4" y1="72.3104" x2="4" y2="16.6896" stroke="url(#paint0_linear_0_585)" stroke-width="2" stroke-linecap="round"/>
<line x1="9" y1="62.2567" x2="9" y2="26.7433" stroke="black" stroke-width="2" stroke-linecap="round"/>
<line x1="9" y1="62.2567" x2="9" y2="26.7433" stroke="url(#paint1_linear_0_585)" stroke-width="2" stroke-linecap="round"/>
<line x1="14" y1="66.5115" x2="14" y2="22.4885" stroke="black" stroke-width="2" stroke-linecap="round"/>
<line x1="14" y1="66.5115" x2="14" y2="22.4885" stroke="url(#paint2_linear_0_585)" stroke-width="2" stroke-linecap="round"/>
<line x1="19" y1="49.7643" x2="19" y2="39.2357" stroke="black" stroke-width="2" stroke-linecap="round"/>
<line x1="19" y1="49.7643" x2="19" y2="39.2357" stroke="url(#paint3_linear_0_585)" stroke-width="2" stroke-linecap="round"/>
<line x1="24" y1="54.6913" x2="24" y2="34.3087" stroke="black" stroke-width="2" stroke-linecap="round"/>
<line x1="24" y1="54.6913" x2="24" y2="34.3087" stroke="url(#paint4_linear_0_585)" stroke-width="2" stroke-linecap="round"/>
<line x1="29" y1="53.0646" x2="29" y2="35.9353" stroke="black" stroke-width="2" stroke-linecap="round"/>
<line x1="29" y1="53.0646" x2="29" y2="35.9353" stroke="url(#paint5_linear_0_585)" stroke-width="2" stroke-linecap="round"/>
<line x1="34" y1="62.5822" x2="34" y2="26.4178" stroke="black" stroke-width="2" stroke-linecap="round"/>
<line x1="34" y1="62.5822" x2="34" y2="26.4178" stroke="url(#paint6_linear_0_585)" stroke-width="2" stroke-linecap="round"/>
<line x1="39" y1="60.3328" x2="39" y2="28.6673" stroke="black" stroke-width="2" stroke-linecap="round"/>
<line x1="39" y1="60.3328" x2="39" y2="28.6673" stroke="url(#paint7_linear_0_585)" stroke-width="2" stroke-linecap="round"/>
<line x1="44" y1="83.4441" x2="44" y2="5.55591" stroke="black" stroke-width="2" stroke-linecap="round"/>
<line x1="44" y1="83.4441" x2="44" y2="5.55591" stroke="url(#paint8_linear_0_585)" stroke-width="2" stroke-linecap="round"/>
<line x1="49" y1="50.3544" x2="49" y2="38.6456" stroke="black" stroke-width="2" stroke-linecap="round"/>
<line x1="49" y1="50.3544" x2="49" y2="38.6456" stroke="url(#paint9_linear_0_585)" stroke-width="2" stroke-linecap="round"/>
<line x1="54" y1="50.5003" x2="54" y2="38.4996" stroke="black" stroke-width="2" stroke-linecap="round"/>
<line x1="54" y1="50.5003" x2="54" y2="38.4996" stroke="url(#paint10_linear_0_585)" stroke-width="2" stroke-linecap="round"/>
<line x1="59" y1="51.284" x2="59" y2="37.716" stroke="black" stroke-width="2" stroke-linecap="round"/>
<line x1="59" y1="51.284" x2="59" y2="37.716" stroke="url(#paint11_linear_0_585)" stroke-width="2" stroke-linecap="round"/>
<line x1="64" y1="49.1177" x2="64" y2="39.8823" stroke="black" stroke-width="2" stroke-linecap="round"/>
<line x1="64" y1="49.1177" x2="64" y2="39.8823" stroke="url(#paint12_linear_0_585)" stroke-width="2" stroke-linecap="round"/>
<line x1="69" y1="84.532" x2="69" y2="4.46795" stroke="black" stroke-width="2" stroke-linecap="round"/>
<line x1="69" y1="84.532" x2="69" y2="4.46795" stroke="url(#paint13_linear_0_585)" stroke-width="2" stroke-linecap="round"/>
<line x1="74" y1="59.5916" x2="74" y2="29.4084" stroke="black" stroke-width="2" stroke-linecap="round"/>
<line x1="74" y1="59.5916" x2="74" y2="29.4084" stroke="url(#paint14_linear_0_585)" stroke-width="2" stroke-linecap="round"/>
<line x1="79" y1="80.8207" x2="79" y2="8.17928" stroke="black" stroke-width="2" stroke-linecap="round"/>
<line x1="79" y1="80.8207" x2="79" y2="8.17928" stroke="url(#paint15_linear_0_585)" stroke-width="2" stroke-linecap="round"/>
<line x1="84" y1="65.397" x2="84" y2="23.603" stroke="black" stroke-width="2" stroke-linecap="round"/>
<line x1="84" y1="65.397" x2="84" y2="23.603" stroke="url(#paint16_linear_0_585)" stroke-width="2" stroke-linecap="round"/>
<line x1="89" y1="74.0634" x2="89" y2="14.9366" stroke="black" stroke-width="2" stroke-linecap="round"/>
<line x1="89" y1="74.0634" x2="89" y2="14.9366" stroke="url(#paint17_linear_0_585)" stroke-width="2" stroke-linecap="round"/>
<line x1="94" y1="72.7479" x2="94" y2="16.2521" stroke="black" stroke-width="2" stroke-linecap="round"/>
<line x1="94" y1="72.7479" x2="94" y2="16.2521" stroke="url(#paint18_linear_0_585)" stroke-width="2" stroke-linecap="round"/>
<line x1="99" y1="74.9937" x2="99" y2="14.0063" stroke="black" stroke-width="2" stroke-linecap="round"/>
<line x1="99" y1="74.9937" x2="99" y2="14.0063" stroke="url(#paint19_linear_0_585)" stroke-width="2" stroke-linecap="round"/>
<line x1="104" y1="85.6217" x2="104" y2="3.37824" stroke="black" stroke-width="2" stroke-linecap="round"/>
<line x1="104" y1="85.6217" x2="104" y2="3.37824" stroke="url(#paint20_linear_0_585)" stroke-width="2" stroke-linecap="round"/>
<line x1="109" y1="86.7482" x2="109" y2="2.25175" stroke="black" stroke-width="2" stroke-linecap="round"/>
<line x1="109" y1="86.7482" x2="109" y2="2.25175" stroke="url(#paint21_linear_0_585)" stroke-width="2" stroke-linecap="round"/>
<line x1="114" y1="53.3119" x2="114" y2="35.6881" stroke="black" stroke-width="2" stroke-linecap="round"/>
<line x1="114" y1="53.3119" x2="114" y2="35.6881" stroke="url(#paint22_linear_0_585)" stroke-width="2" stroke-linecap="round"/>
<line x1="119" y1="79.965" x2="119" y2="9.03499" stroke="black" stroke-width="2" stroke-linecap="round"/>
<line x1="119" y1="79.965" x2="119" y2="9.03499" stroke="url(#paint23_linear_0_585)" stroke-width="2" stroke-linecap="round"/>
<line x1="124" y1="86.7437" x2="124" y2="2.25631" stroke="black" stroke-width="2" stroke-linecap="round"/>
<line x1="124" y1="86.7437" x2="124" y2="2.25631" stroke="url(#paint24_linear_0_585)" stroke-width="2" stroke-linecap="round"/>
<line x1="129" y1="73.8456" x2="129" y2="15.1545" stroke="black" stroke-width="2" stroke-linecap="round"/>
<line x1="129" y1="73.8456" x2="129" y2="15.1545" stroke="url(#paint25_linear_0_585)" stroke-width="2" stroke-linecap="round"/>
<line x1="134" y1="57.251" x2="134" y2="31.749" stroke="black" stroke-width="2" stroke-linecap="round"/>
<line x1="134" y1="57.251" x2="134" y2="31.749" stroke="url(#paint26_linear_0_585)" stroke-width="2" stroke-linecap="round"/>
<line x1="139" y1="64.6372" x2="139" y2="24.3627" stroke="black" stroke-width="2" stroke-linecap="round"/>
<line x1="139" y1="64.6372" x2="139" y2="24.3627" stroke="url(#paint27_linear_0_585)" stroke-width="2" stroke-linecap="round"/>
<line x1="144" y1="58.9498" x2="144" y2="30.0501" stroke="black" stroke-width="2" stroke-linecap="round"/>
<line x1="144" y1="58.9498" x2="144" y2="30.0501" stroke="url(#paint28_linear_0_585)" stroke-width="2" stroke-linecap="round"/>
<line x1="149" y1="81.2855" x2="149" y2="7.71451" stroke="black" stroke-width="2" stroke-linecap="round"/>
<line x1="149" y1="81.2855" x2="149" y2="7.71451" stroke="url(#paint29_linear_0_585)" stroke-width="2" stroke-linecap="round"/>
<line x1="154" y1="55.9535" x2="154" y2="33.0466" stroke="black" stroke-width="2" stroke-linecap="round"/>
<line x1="154" y1="55.9535" x2="154" y2="33.0466" stroke="url(#paint30_linear_0_585)" stroke-width="2" stroke-linecap="round"/>
<line x1="159" y1="69.6397" x2="159" y2="19.3603" stroke="black" stroke-width="2" stroke-linecap="round"/>
<line x1="159" y1="69.6397" x2="159" y2="19.3603" stroke="url(#paint31_linear_0_585)" stroke-width="2" stroke-linecap="round"/>
<line x1="164" y1="68.3941" x2="164" y2="20.6059" stroke="black" stroke-width="2" stroke-linecap="round"/>
<line x1="164" y1="68.3941" x2="164" y2="20.6059" stroke="url(#paint32_linear_0_585)" stroke-width="2" stroke-linecap="round"/>
<line x1="169" y1="75.368" x2="169" y2="13.632" stroke="black" stroke-width="2" stroke-linecap="round"/>
<line x1="169" y1="75.368" x2="169" y2="13.632" stroke="url(#paint33_linear_0_585)" stroke-width="2" stroke-linecap="round"/>
<line x1="174" y1="53.8958" x2="174" y2="35.1042" stroke="black" stroke-width="2" stroke-linecap="round"/>
<line x1="174" y1="53.8958" x2="174" y2="35.1042" stroke="url(#paint34_linear_0_585)" stroke-width="2" stroke-linecap="round"/>
<line x1="179" y1="53.3734" x2="179" y2="35.6266" stroke="black" stroke-width="2" stroke-linecap="round"/>
<line x1="179" y1="53.3734" x2="179" y2="35.6266" stroke="url(#paint35_linear_0_585)" stroke-width="2" stroke-linecap="round"/>
<line x1="184" y1="52.4536" x2="184" y2="36.5465" stroke="black" stroke-width="2" stroke-linecap="round"/>
<line x1="184" y1="52.4536" x2="184" y2="36.5465" stroke="url(#paint36_linear_0_585)" stroke-width="2" stroke-linecap="round"/>
<line x1="189" y1="82.2187" x2="189" y2="6.78129" stroke="black" stroke-width="2" stroke-linecap="round"/>
<line x1="189" y1="82.2187" x2="189" y2="6.78129" stroke="url(#paint37_linear_0_585)" stroke-width="2" stroke-linecap="round"/>
<line x1="194" y1="78.6358" x2="194" y2="10.3641" stroke="black" stroke-width="2" stroke-linecap="round"/>
<line x1="194" y1="78.6358" x2="194" y2="10.3641" stroke="url(#paint38_linear_0_585)" stroke-width="2" stroke-linecap="round"/>
<line x1="199" y1="75.4369" x2="199" y2="13.5631" stroke="black" stroke-width="2" stroke-linecap="round"/>
<line x1="199" y1="75.4369" x2="199" y2="13.5631" stroke="url(#paint39_linear_0_585)" stroke-width="2" stroke-linecap="round"/>
<line x1="204" y1="62.7048" x2="204" y2="26.2952" stroke="black" stroke-width="2" stroke-linecap="round"/>
<line x1="204" y1="62.7048" x2="204" y2="26.2952" stroke="url(#paint40_linear_0_585)" stroke-width="2" stroke-linecap="round"/>
<line x1="209" y1="53.3794" x2="209" y2="35.6205" stroke="black" stroke-width="2" stroke-linecap="round"/>
<line x1="209" y1="53.3794" x2="209" y2="35.6205" stroke="url(#paint41_linear_0_585)" stroke-width="2" stroke-linecap="round"/>
<line x1="214" y1="56.9567" x2="214" y2="32.0433" stroke="black" stroke-width="2" stroke-linecap="round"/>
<line x1="214" y1="56.9567" x2="214" y2="32.0433" stroke="url(#paint42_linear_0_585)" stroke-width="2" stroke-linecap="round"/>
<line x1="219" y1="53.3184" x2="219" y2="35.6816" stroke="black" stroke-width="2" stroke-linecap="round"/>
<line x1="219" y1="53.3184" x2="219" y2="35.6816" stroke="url(#paint43_linear_0_585)" stroke-width="2" stroke-linecap="round"/>
<line x1="224" y1="81.9819" x2="224" y2="7.01804" stroke="black" stroke-width="2" stroke-linecap="round"/>
<line x1="224" y1="81.9819" x2="224" y2="7.01804" stroke="url(#paint44_linear_0_585)" stroke-width="2" stroke-linecap="round"/>
<line x1="229" y1="71.2382" x2="229" y2="17.7619" stroke="black" stroke-width="2" stroke-linecap="round"/>
<line x1="229" y1="71.2382" x2="229" y2="17.7619" stroke="url(#paint45_linear_0_585)" stroke-width="2" stroke-linecap="round"/>
<line x1="234" y1="69.3677" x2="234" y2="19.6323" stroke="black" stroke-width="2" stroke-linecap="round"/>
<line x1="234" y1="69.3677" x2="234" y2="19.6323" stroke="url(#paint46_linear_0_585)" stroke-width="2" stroke-linecap="round"/>
<line x1="239" y1="68.7897" x2="239" y2="20.2103" stroke="black" stroke-width="2" stroke-linecap="round"/>
<line x1="239" y1="68.7897" x2="239" y2="20.2103" stroke="url(#paint47_linear_0_585)" stroke-width="2" stroke-linecap="round"/>
<line x1="244" y1="49.9776" x2="244" y2="39.0224" stroke="black" stroke-width="2" stroke-linecap="round"/>
<line x1="244" y1="49.9776" x2="244" y2="39.0224" stroke="url(#paint48_linear_0_585)" stroke-width="2" stroke-linecap="round"/>
<line x1="249" y1="54.2833" x2="249" y2="34.7168" stroke="black" stroke-width="2" stroke-linecap="round"/>
<line x1="249" y1="54.2833" x2="249" y2="34.7168" stroke="url(#paint49_linear_0_585)" stroke-width="2" stroke-linecap="round"/>
<line x1="254" y1="85.5826" x2="254" y2="3.4173" stroke="black" stroke-width="2" stroke-linecap="round"/>
<line x1="254" y1="85.5826" x2="254" y2="3.4173" stroke="url(#paint50_linear_0_585)" stroke-width="2" stroke-linecap="round"/>
<line x1="259" y1="64.162" x2="259" y2="24.8379" stroke="black" stroke-width="2" stroke-linecap="round"/>
<line x1="259" y1="64.162" x2="259" y2="24.8379" stroke="url(#paint51_linear_0_585)" stroke-width="2" stroke-linecap="round"/>
<line x1="264" y1="55.5087" x2="264" y2="33.4914" stroke="black" stroke-width="2" stroke-linecap="round"/>
<line x1="264" y1="55.5087" x2="264" y2="33.4914" stroke="url(#paint52_linear_0_585)" stroke-width="2" stroke-linecap="round"/>
<line x1="269" y1="74.9752" x2="269" y2="14.0248" stroke="black" stroke-width="2" stroke-linecap="round"/>
<line x1="269" y1="74.9752" x2="269" y2="14.0248" stroke="url(#paint53_linear_0_585)" stroke-width="2" stroke-linecap="round"/>
<line x1="274" y1="60.5462" x2="274" y2="28.4539" stroke="black" stroke-width="2" stroke-linecap="round"/>
<line x1="274" y1="60.5462" x2="274" y2="28.4539" stroke="url(#paint54_linear_0_585)" stroke-width="2" stroke-linecap="round"/>
<line x1="279" y1="62.9574" x2="279" y2="26.0426" stroke="black" stroke-width="2" stroke-linecap="round"/>
<line x1="279" y1="62.9574" x2="279" y2="26.0426" stroke="url(#paint55_linear_0_585)" stroke-width="2" stroke-linecap="round"/>
<line x1="284" y1="66.9733" x2="284" y2="22.0267" stroke="black" stroke-width="2" stroke-linecap="round"/>
<line x1="284" y1="66.9733" x2="284" y2="22.0267" stroke="url(#paint56_linear_0_585)" stroke-width="2" stroke-linecap="round"/>
<line x1="289" y1="58.3264" x2="289" y2="30.6736" stroke="black" stroke-width="2" stroke-linecap="round"/>
<line x1="289" y1="58.3264" x2="289" y2="30.6736" stroke="url(#paint57_linear_0_585)" stroke-width="2" stroke-linecap="round"/>
<line x1="294" y1="59.9287" x2="294" y2="29.0713" stroke="black" stroke-width="2" stroke-linecap="round"/>
<line x1="294" y1="59.9287" x2="294" y2="29.0713" stroke="url(#paint58_linear_0_585)" stroke-width="2" stroke-linecap="round"/>
<line x1="299" y1="52.5872" x2="299" y2="36.4129" stroke="black" stroke-width="2" stroke-linecap="round"/>
<line x1="299" y1="52.5872" x2="299" y2="36.4129" stroke="url(#paint59_linear_0_585)" stroke-width="2" stroke-linecap="round"/>
<line x1="304" y1="50.3498" x2="304" y2="38.6502" stroke="black" stroke-width="2" stroke-linecap="round"/>
<line x1="304" y1="50.3498" x2="304" y2="38.6502" stroke="url(#paint60_linear_0_585)" stroke-width="2" stroke-linecap="round"/>
<line x1="309" y1="78.3635" x2="309" y2="10.6365" stroke="black" stroke-width="2" stroke-linecap="round"/>
<line x1="309" y1="78.3635" x2="309" y2="10.6365" stroke="url(#paint61_linear_0_585)" stroke-width="2" stroke-linecap="round"/>
<line x1="314" y1="55.8246" x2="314" y2="33.1753" stroke="black" stroke-width="2" stroke-linecap="round"/>
<line x1="314" y1="55.8246" x2="314" y2="33.1753" stroke="url(#paint62_linear_0_585)" stroke-width="2" stroke-linecap="round"/>
<line x1="319" y1="80.7798" x2="319" y2="8.22017" stroke="black" stroke-width="2" stroke-linecap="round"/>
<line x1="319" y1="80.7798" x2="319" y2="8.22017" stroke="url(#paint63_linear_0_585)" stroke-width="2" stroke-linecap="round"/>
<line x1="324" y1="49.3311" x2="324" y2="39.6689" stroke="black" stroke-width="2" stroke-linecap="round"/>
<line x1="324" y1="49.3311" x2="324" y2="39.6689" stroke="url(#paint64_linear_0_585)" stroke-width="2" stroke-linecap="round"/>
<line x1="329" y1="51.3166" x2="329" y2="37.6834" stroke="black" stroke-width="2" stroke-linecap="round"/>
<line x1="329" y1="51.3166" x2="329" y2="37.6834" stroke="url(#paint65_linear_0_585)" stroke-width="2" stroke-linecap="round"/>
<line x1="334" y1="61.1146" x2="334" y2="27.8854" stroke="black" stroke-width="2" stroke-linecap="round"/>
<line x1="334" y1="61.1146" x2="334" y2="27.8854" stroke="url(#paint66_linear_0_585)" stroke-width="2" stroke-linecap="round"/>
<line x1="339" y1="70.6583" x2="339" y2="18.3417" stroke="black" stroke-width="2" stroke-linecap="round"/>
<line x1="339" y1="70.6583" x2="339" y2="18.3417" stroke="url(#paint67_linear_0_585)" stroke-width="2" stroke-linecap="round"/>
<line x1="344" y1="81.5481" x2="344" y2="7.45193" stroke="black" stroke-width="2" stroke-linecap="round"/>
<line x1="344" y1="81.5481" x2="344" y2="7.45193" stroke="url(#paint68_linear_0_585)" stroke-width="2" stroke-linecap="round"/>
<line x1="349" y1="57.363" x2="359" y2="31.6369" stroke="black" stroke-width="2" stroke-linecap="round"/>
<line x1="349" y1="57.363" x2="359" y2="31.6369" stroke="url(#paint69_linear_0_585)" stroke-width="2" stroke-linecap="round"/>
<defs>
<linearGradient id="paint0_linear_0_585" x1="5" y1="44.5" x2="6" y2="44.5" gradientUnits="userSpaceOnUse">
<stop stop-color="#FC8A19"/>
<stop offset="0.515" stop-color="#FD7512"/>
<stop offset="1" stop-color="#FE600C"/>
</linearGradient>
<linearGradient id="paint1_linear_0_585" x1="10" y1="44.5" x2="11" y2="44.5" gradientUnits="userSpaceOnUse">
<stop stop-color="#FC8A19"/>
<stop offset="0.515" stop-color="#FD7512"/>
<stop offset="1" stop-color="#FE600C"/>
</linearGradient>
<linearGradient id="paint2_linear_0_585" x1="15" y1="44.5" x2="16" y2="44.5" gradientUnits="userSpaceOnUse">
<stop stop-color="#FC8A19"/>
<stop offset="0.515" stop-color="#FD7512"/>
<stop offset="1" stop-color="#FE600C"/>
</linearGradient>
<linearGradient id="paint3_linear_0_585" x1="20" y1="44.5" x2="21" y2="44.5" gradientUnits="userSpaceOnUse">
<stop stop-color="#FC8A19"/>
<stop offset="0.515" stop-color="#FD7512"/>
<stop offset="1" stop-color="#FE600C"/>
</linearGradient>
<linearGradient id="paint4_linear_0_585" x1="25" y1="44.5" x2="26" y2="44.5" gradientUnits="userSpaceOnUse">
<stop stop-color="#FC8A19"/>
<stop offset="0.515" stop-color="#FD7512"/>
<stop offset="1" stop-color="#FE600C"/>
</linearGradient>
<linearGradient id="paint5_linear_0_585" x1="30" y1="44.5" x2="31" y2="44.5" gradientUnits="userSpaceOnUse">
<stop stop-color="#FC8A19"/>
<stop offset="0.515" stop-color="#FD7512"/>
<stop offset="1" stop-color="#FE600C"/>
</linearGradient>
<linearGradient id="paint6_linear_0_585" x1="35" y1="44.5" x2="36" y2="44.5" gradientUnits="userSpaceOnUse">
<stop stop-color="#FC8A19"/>
<stop offset="0.515" stop-color="#FD7512"/>
<stop offset="1" stop-color="#FE600C"/>
</linearGradient>
<linearGradient id="paint7_linear_0_585" x1="40" y1="44.5" x2="41" y2="44.5" gradientUnits="userSpaceOnUse">
<stop stop-color="#FC8A19"/>
<stop offset="0.515" stop-color="#FD7512"/>
<stop offset="1" stop-color="#FE600C"/>
</linearGradient>
<linearGradient id="paint8_linear_0_585" x1="45" y1="44.5" x2="46" y2="44.5" gradientUnits="userSpaceOnUse">
<stop stop-color="#FC8A19"/>
<stop offset="0.515" stop-color="#FD7512"/>
<stop offset="1" stop-color="#FE600C"/>
</linearGradient>
<linearGradient id="paint9_linear_0_585" x1="50" y1="44.5" x2="51" y2="44.5" gradientUnits="userSpaceOnUse">
<stop stop-color="#FC8A19"/>
<stop offset="0.515" stop-color="#FD7512"/>
<stop offset="1" stop-color="#FE600C"/>
</linearGradient>
<linearGradient id="paint10_linear_0_585" x1="55" y1="44.5" x2="56" y2="44.5" gradientUnits="userSpaceOnUse">
<stop stop-color="#FC8A19"/>
<stop offset="0.515" stop-color="#FD7512"/>
<stop offset="1" stop-color="#FE600C"/>
</linearGradient>
<linearGradient id="paint11_linear_0_585" x1="60" y1="44.5" x2="61" y2="44.5" gradientUnits="userSpaceOnUse">
<stop stop-color="#FC8A19"/>
<stop offset="0.515" stop-color="#FD7512"/>
<stop offset="1" stop-color="#FE600C"/>
</linearGradient>
<linearGradient id="paint12_linear_0_585" x1="65" y1="44.5" x2="66" y2="44.5" gradientUnits="userSpaceOnUse">
<stop stop-color="#FC8A19"/>
<stop offset="0.515" stop-color="#FD7512"/>
<stop offset="1" stop-color="#FE600C"/>
</linearGradient>
<linearGradient id="paint13_linear_0_585" x1="70" y1="44.5" x2="71" y2="44.5" gradientUnits="userSpaceOnUse">
<stop stop-color="#FC8A19"/>
<stop offset="0.515" stop-color="#FD7512"/>
<stop offset="1" stop-color="#FE600C"/>
</linearGradient>
<linearGradient id="paint14_linear_0_585" x1="75" y1="44.5" x2="76" y2="44.5" gradientUnits="userSpaceOnUse">
<stop stop-color="#FC8A19"/>
<stop offset="0.515" stop-color="#FD7512"/>
<stop offset="1" stop-color="#FE600C"/>
</linearGradient>
<linearGradient id="paint15_linear_0_585" x1="80" y1="44.5" x2="81" y2="44.5" gradientUnits="userSpaceOnUse">
<stop stop-color="#FC8A19"/>
<stop offset="0.515" stop-color="#FD7512"/>
<stop offset="1" stop-color="#FE600C"/>
</linearGradient>
<linearGradient id="paint16_linear_0_585" x1="85" y1="44.5" x2="86" y2="44.5" gradientUnits="userSpaceOnUse">
<stop stop-color="#FC8A19"/>
<stop offset="0.515" stop-color="#FD7512"/>
<stop offset="1" stop-color="#FE600C"/>
</linearGradient>
<linearGradient id="paint17_linear_0_585" x1="90" y1="44.5" x2="91" y2="44.5" gradientUnits="userSpaceOnUse">
<stop stop-color="#FC8A19"/>
<stop offset="0.515" stop-color="#FD7512"/>
<stop offset="1" stop-color="#FE600C"/>
</linearGradient>
<linearGradient id="paint18_linear_0_585" x1="95" y1="44.5" x2="96" y2="44.5" gradientUnits="userSpaceOnUse">
<stop stop-color="#FC8A19"/>
<stop offset="0.515" stop-color="#FD7512"/>
<stop offset="1" stop-color="#FE600C"/>
</linearGradient>
<linearGradient id="paint19_linear_0_585" x1="100" y1="44.5" x2="101" y2="44.5" gradientUnits="userSpaceOnUse">
<stop stop-color="#FC8A19"/>
<stop offset="0.515" stop-color="#FD7512"/>
<stop offset="1" stop-color="#FE600C"/>
</linearGradient>
<linearGradient id="paint20_linear_0_585" x1="105" y1="44.5" x2="106" y2="44.5" gradientUnits="userSpaceOnUse">
<stop stop-color="#FC8A19"/>
<stop offset="0.515" stop-color="#FD7512"/>
<stop offset="1" stop-color="#FE600C"/>
</linearGradient>
<linearGradient id="paint21_linear_0_585" x1="110" y1="44.5" x2="111" y2="44.5" gradientUnits="userSpaceOnUse">
<stop stop-color="#FC8A19"/>
<stop offset="0.515" stop-color="#FD7512"/>
<stop offset="1" stop-color="#FE600C"/>
</linearGradient>
<linearGradient id="paint22_linear_0_585" x1="115" y1="44.5" x2="116" y2="44.5" gradientUnits="userSpaceOnUse">
<stop stop-color="#FC8A19"/>
<stop offset="0.515" stop-color="#FD7512"/>
<stop offset="1" stop-color="#FE600C"/>
</linearGradient>
<linearGradient id="paint23_linear_0_585" x1="120" y1="44.5" x2="121" y2="44.5" gradientUnits="userSpaceOnUse">
<stop stop-color="#FC8A19"/>
<stop offset="0.515" stop-color="#FD7512"/>
<stop offset="1" stop-color="#FE600C"/>
</linearGradient>
<linearGradient id="paint24_linear_0_585" x1="125" y1="44.5" x2="126" y2="44.5" gradientUnits="userSpaceOnUse">
<stop stop-color="#FC8A19"/>
<stop offset="0.515" stop-color="#FD7512"/>
<stop offset="1" stop-color="#FE600C"/>
</linearGradient>
<linearGradient id="paint25_linear_0_585" x1="130" y1="44.5" x2="131" y2="44.5" gradientUnits="userSpaceOnUse">
<stop stop-color="#FC8A19"/>
<stop offset="0.515" stop-color="#FD7512"/>
<stop offset="1" stop-color="#FE600C"/>
</linearGradient>
<linearGradient id="paint26_linear_0_585" x1="135" y1="44.5" x2="136" y2="44.5" gradientUnits="userSpaceOnUse">
<stop stop-color="#FC8A19"/>
<stop offset="0.515" stop-color="#FD7512"/>
<stop offset="1" stop-color="#FE600C"/>
</linearGradient>
<linearGradient id="paint27_linear_0_585" x1="140" y1="44.5" x2="141" y2="44.5" gradientUnits="userSpaceOnUse">
<stop stop-color="#FC8A19"/>
<stop offset="0.515" stop-color="#FD7512"/>
<stop offset="1" stop-color="#FE600C"/>
</linearGradient>
<linearGradient id="paint28_linear_0_585" x1="145" y1="44.5" x2="146" y2="44.5" gradientUnits="userSpaceOnUse">
<stop stop-color="#FC8A19"/>
<stop offset="0.515" stop-color="#FD7512"/>
<stop offset="1" stop-color="#FE600C"/>
</linearGradient>
<linearGradient id="paint29_linear_0_585" x1="150" y1="44.5" x2="151" y2="44.5" gradientUnits="userSpaceOnUse">
<stop stop-color="#FC8A19"/>
<stop offset="0.515" stop-color="#FD7512"/>
<stop offset="1" stop-color="#FE600C"/>
</linearGradient>
<linearGradient id="paint30_linear_0_585" x1="155" y1="44.5" x2="156" y2="44.5" gradientUnits="userSpaceOnUse">
<stop stop-color="#FC8A19"/>
<stop offset="0.515" stop-color="#FD7512"/>
<stop offset="1" stop-color="#FE600C"/>
</linearGradient>
<linearGradient id="paint31_linear_0_585" x1="160" y1="44.5" x2="161" y2="44.5" gradientUnits="userSpaceOnUse">
<stop stop-color="#FC8A19"/>
<stop offset="0.515" stop-color="#FD7512"/>
<stop offset="1" stop-color="#FE600C"/>
</linearGradient>
<linearGradient id="paint32_linear_0_585" x1="165" y1="44.5" x2="166" y2="44.5" gradientUnits="userSpaceOnUse">
<stop stop-color="#FC8A19"/>
<stop offset="0.515" stop-color="#FD7512"/>
<stop offset="1" stop-color="#FE600C"/>
</linearGradient>
<linearGradient id="paint33_linear_0_585" x1="170" y1="44.5" x2="171" y2="44.5" gradientUnits="userSpaceOnUse">
<stop stop-color="#FC8A19"/>
<stop offset="0.515" stop-color="#FD7512"/>
<stop offset="1" stop-color="#FE600C"/>
</linearGradient>
<linearGradient id="paint34_linear_0_585" x1="175" y1="44.5" x2="176" y2="44.5" gradientUnits="userSpaceOnUse">
<stop stop-color="#FC8A19"/>
<stop offset="0.515" stop-color="#FD7512"/>
<stop offset="1" stop-color="#FE600C"/>
</linearGradient>
<linearGradient id="paint35_linear_0_585" x1="180" y1="44.5" x2="181" y2="44.5" gradientUnits="userSpaceOnUse">
<stop stop-color="#FC8A19"/>
<stop offset="0.515" stop-color="#FD7512"/>
<stop offset="1" stop-color="#FE600C"/>
</linearGradient>
<linearGradient id="paint36_linear_0_585" x1="185" y1="44.5" x2="186" y2="44.5" gradientUnits="userSpaceOnUse">
<stop stop-color="#FC8A19"/>
<stop offset="0.515" stop-color="#FD7512"/>
<stop offset="1" stop-color="#FE600C"/>
</linearGradient>
<linearGradient id="paint37_linear_0_585" x1="190" y1="44.5" x2="191" y2="44.5" gradientUnits="userSpaceOnUse">
<stop stop-color="#FC8A19"/>
<stop offset="0.515" stop-color="#FD7512"/>
<stop offset="1" stop-color="#FE600C"/>
</linearGradient>
<linearGradient id="paint38_linear_0_585" x1="195" y1="44.5" x2="196" y2="44.5" gradientUnits="userSpaceOnUse">
<stop stop-color="#FC8A19"/>
<stop offset="0.515" stop-color="#FD7512"/>
<stop offset="1" stop-color="#FE600C"/>
</linearGradient>
<linearGradient id="paint39_linear_0_585" x1="200" y1="44.5" x2="201" y2="44.5" gradientUnits="userSpaceOnUse">
<stop stop-color="#FC8A19"/>
<stop offset="0.515" stop-color="#FD7512"/>
<stop offset="1" stop-color="#FE600C"/>
</linearGradient>
<linearGradient id="paint40_linear_0_585" x1="205" y1="44.5" x2="206" y2="44.5" gradientUnits="userSpaceOnUse">
<stop stop-color="#FC8A19"/>
<stop offset="0.515" stop-color="#FD7512"/>
<stop offset="1" stop-color="#FE600C"/>
</linearGradient>
<linearGradient id="paint41_linear_0_585" x1="210" y1="44.5" x2="211" y2="44.5" gradientUnits="userSpaceOnUse">
<stop stop-color="#FC8A19"/>
<stop offset="0.515" stop-color="#FD7512"/>
<stop offset="1" stop-color="#FE600C"/>
</linearGradient>
<linearGradient id="paint42_linear_0_585" x1="215" y1="44.5" x2="216" y2="44.5" gradientUnits="userSpaceOnUse">
<stop stop-color="#FC8A19"/>
<stop offset="0.515" stop-color="#FD7512"/>
<stop offset="1" stop-color="#FE600C"/>
</linearGradient>
<linearGradient id="paint43_linear_0_585" x1="220" y1="44.5" x2="221" y2="44.5" gradientUnits="userSpaceOnUse">
<stop stop-color="#FC8A19"/>
<stop offset="0.515" stop-color="#FD7512"/>
<stop offset="1" stop-color="#FE600C"/>
</linearGradient>
<linearGradient id="paint44_linear_0_585" x1="225" y1="44.5" x2="226" y2="44.5" gradientUnits="userSpaceOnUse">
<stop stop-color="#FC8A19"/>
<stop offset="0.515" stop-color="#FD7512"/>
<stop offset="1" stop-color="#FE600C"/>
</linearGradient>
<linearGradient id="paint45_linear_0_585" x1="230" y1="44.5" x2="231" y2="44.5" gradientUnits="userSpaceOnUse">
<stop stop-color="#FC8A19"/>
<stop offset="0.515" stop-color="#FD7512"/>
<stop offset="1" stop-color="#FE600C"/>
</linearGradient>
<linearGradient id="paint46_linear_0_585" x1="235" y1="44.5" x2="236" y2="44.5" gradientUnits="userSpaceOnUse">
<stop stop-color="#FC8A19"/>
<stop offset="0.515" stop-color="#FD7512"/>
<stop offset="1" stop-color="#FE600C"/>
</linearGradient>
<linearGradient id="paint47_linear_0_585" x1="240" y1="44.5" x2="241" y2="44.5" gradientUnits="userSpaceOnUse">
<stop stop-color="#FC8A19"/>
<stop offset="0.515" stop-color="#FD7512"/>
<stop offset="1" stop-color="#FE600C"/>
</linearGradient>
<linearGradient id="paint48_linear_0_585" x1="245" y1="44.5" x2="246" y2="44.5" gradientUnits="userSpaceOnUse">
<stop stop-color="#FC8A19"/>
<stop offset="0.515" stop-color="#FD7512"/>
<stop offset="1" stop-color="#FE600C"/>
</linearGradient>
<linearGradient id="paint49_linear_0_585" x1="250" y1="44.5" x2="251" y2="44.5" gradientUnits="userSpaceOnUse">
<stop stop-color="#FC8A19"/>
<stop offset="0.515" stop-color="#FD7512"/>
<stop offset="1" stop-color="#FE600C"/>
</linearGradient>
<linearGradient id="paint50_linear_0_585" x1="255" y1="44.5" x2="256" y2="44.5" gradientUnits="userSpaceOnUse">
<stop stop-color="#FC8A19"/>
<stop offset="0.515" stop-color="#FD7512"/>
<stop offset="1" stop-color="#FE600C"/>
</linearGradient>
<linearGradient id="paint51_linear_0_585" x1="260" y1="44.5" x2="261" y2="44.5" gradientUnits="userSpaceOnUse">
<stop stop-color="#FC8A19"/>
<stop offset="0.515" stop-color="#FD7512"/>
<stop offset="1" stop-color="#FE600C"/>
</linearGradient>
<linearGradient id="paint52_linear_0_585" x1="265" y1="44.5" x2="266" y2="44.5" gradientUnits="userSpaceOnUse">
<stop stop-color="#FC8A19"/>
<stop offset="0.515" stop-color="#FD7512"/>
<stop offset="1" stop-color="#FE600C"/>
</linearGradient>
<linearGradient id="paint53_linear_0_585" x1="270" y1="44.5" x2="271" y2="44.5" gradientUnits="userSpaceOnUse">
<stop stop-color="#FC8A19"/>
<stop offset="0.515" stop-color="#FD7512"/>
<stop offset="1" stop-color="#FE600C"/>
</linearGradient>
<linearGradient id="paint54_linear_0_585" x1="275" y1="44.5" x2="276" y2="44.5" gradientUnits="userSpaceOnUse">
<stop stop-color="#FC8A19"/>
<stop offset="0.515" stop-color="#FD7512"/>
<stop offset="1" stop-color="#FE600C"/>
</linearGradient>
<linearGradient id="paint55_linear_0_585" x1="280" y1="44.5" x2="281" y2="44.5" gradientUnits="userSpaceOnUse">
<stop stop-color="#FC8A19"/>
<stop offset="0.515" stop-color="#FD7512"/>
<stop offset="1" stop-color="#FE600C"/>
</linearGradient>
<linearGradient id="paint56_linear_0_585" x1="285" y1="44.5" x2="286" y2="44.5" gradientUnits="userSpaceOnUse">
<stop stop-color="#FC8A19"/>
<stop offset="0.515" stop-color="#FD7512"/>
<stop offset="1" stop-color="#FE600C"/>
</linearGradient>
<linearGradient id="paint57_linear_0_585" x1="290" y1="44.5" x2="291" y2="44.5" gradientUnits="userSpaceOnUse">
<stop stop-color="#FC8A19"/>
<stop offset="0.515" stop-color="#FD7512"/>
<stop offset="1" stop-color="#FE600C"/>
</linearGradient>
<linearGradient id="paint58_linear_0_585" x1="295" y1="44.5" x2="296" y2="44.5" gradientUnits="userSpaceOnUse">
<stop stop-color="#FC8A19"/>
<stop offset="0.515" stop-color="#FD7512"/>
<stop offset="1" stop-color="#FE600C"/>
</linearGradient>
<linearGradient id="paint59_linear_0_585" x1="300" y1="44.5" x2="301" y2="44.5" gradientUnits="userSpaceOnUse">
<stop stop-color="#FC8A19"/>
<stop offset="0.515" stop-color="#FD7512"/>
<stop offset="1" stop-color="#FE600C"/>
</linearGradient>
<linearGradient id="paint60_linear_0_585" x1="305" y1="44.5" x2="306" y2="44.5" gradientUnits="userSpaceOnUse">
<stop stop-color="#FC8A19"/>
<stop offset="0.515" stop-color="#FD7512"/>
<stop offset="1" stop-color="#FE600C"/>
</linearGradient>
<linearGradient id="paint61_linear_0_585" x1="310" y1="44.5" x2="311" y2="44.5" gradientUnits="userSpaceOnUse">
<stop stop-color="#FC8A19"/>
<stop offset="0.515" stop-color="#FD7512"/>
<stop offset="1" stop-color="#FE600C"/>
</linearGradient>
<linearGradient id="paint62_linear_0_585" x1="315" y1="44.5" x2="316" y2="44.5" gradientUnits="userSpaceOnUse">
<stop stop-color="#FC8A19"/>
<stop offset="0.515" stop-color="#FD7512"/>
<stop offset="1" stop-color="#FE600C"/>
</linearGradient>
<linearGradient id="paint63_linear_0_585" x1="320" y1="44.5" x2="321" y2="44.5" gradientUnits="userSpaceOnUse">
<stop stop-color="#FC8A19"/>
<stop offset="0.515" stop-color="#FD7512"/>
<stop offset="1" stop-color="#FE600C"/>
</linearGradient>
<linearGradient id="paint64_linear_0_585" x1="325" y1="44.5" x2="326" y2="44.5" gradientUnits="userSpaceOnUse">
<stop stop-color="#FC8A19"/>
<stop offset="0.515" stop-color="#FD7512"/>
<stop offset="1" stop-color="#FE600C"/>
</linearGradient>
<linearGradient id="paint65_linear_0_585" x1="330" y1="44.5" x2="331" y2="44.5" gradientUnits="userSpaceOnUse">
<stop stop-color="#FC8A19"/>
<stop offset="0.515" stop-color="#FD7512"/>
<stop offset="1" stop-color="#FE600C"/>
</linearGradient>
<linearGradient id="paint66_linear_0_585" x1="335" y1="44.5" x2="336" y2="44.5" gradientUnits="userSpaceOnUse">
<stop stop-color="#FC8A19"/>
<stop offset="0.515" stop-color="#FD7512"/>
<stop offset="1" stop-color="#FE600C"/>
</linearGradient>
<linearGradient id="paint67_linear_0_585" x1="340" y1="44.5" x2="341" y2="44.5" gradientUnits="userSpaceOnUse">
<stop stop-color="#FC8A19"/>
<stop offset="0.515" stop-color="#FD7512"/>
<stop offset="1" stop-color="#FE600C"/>
</linearGradient>
<linearGradient id="paint68_linear_0_585" x1="345" y1="44.5" x2="346" y2="44.5" gradientUnits="userSpaceOnUse">
<stop stop-color="#FC8A19"/>
<stop offset="0.515" stop-color="#FD7512"/>
<stop offset="1" stop-color="#FE600C"/>
</linearGradient>
<linearGradient id="paint69_linear_0_585" x1="350" y1="44.5" x2="360" y2="44.5" gradientUnits="userSpaceOnUse">
<stop stop-color="#FC8A19"/>
<stop offset="0.515" stop-color="#FD7512"/>
<stop offset="1" stop-color="#FE600C"/>
</linearGradient>
</defs>
</svg>
